<svg width="45" height="51" viewBox="0 0 45 51" fill="none" xmlns="http://www.w3.org/2000/svg">
<path d="M27.9744 3.24309C27.4493 2.98052 26.8254 3.43087 26.9087 4.01155C27.4635 7.89663 26.3643 10.5556 25.7882 11.631C25.0236 11.0719 24.1391 9.82799 23.6629 8.15381C23.2449 6.68515 22.8694 3.83071 25.0479 1.2165C25.4427 0.742623 25.0938 0 24.478 0C19.9579 0 16.3381 2.7511 14.0096 7.95524C12.8525 10.5425 12.2903 13.1015 12.0424 14.5344C10.9492 13.6421 10.3929 12.3134 10.3848 10.5706C10.3767 8.84245 10.9257 7.34564 10.9307 7.33176C11.0414 7.03679 10.9485 6.6944 10.704 6.49544C10.443 6.28376 10.0605 6.27605 9.79136 6.47809C9.68995 6.55405 7.28819 8.37629 4.87177 12.0007C2.6493 15.3344 0 20.8914 0 28.434C0 34.0346 2.38634 39.6331 6.54711 43.7935C10.8964 48.1432 16.7025 50.5384 22.8956 50.5384C29.0884 50.5384 34.8015 48.0295 38.9819 43.4739C42.8064 39.3066 45 33.8244 45 28.434C45 17.3672 39.2719 8.89181 27.9744 3.24309ZM22.8956 49.0547C11.2889 49.0547 1.4837 39.6119 1.4837 28.434C1.4837 21.292 3.97839 16.0315 6.07131 12.876C7.10774 11.3132 8.1515 10.0967 8.98319 9.23343C8.93306 9.63944 8.90106 10.0775 8.90106 10.5328C8.90106 13.2916 10.069 15.3337 12.2783 16.4383C12.7341 16.6662 13.2943 16.3577 13.3475 15.8523C13.3514 15.816 13.7493 12.17 15.3637 8.56098C17.1902 4.47848 19.7462 2.14535 22.9758 1.60555C21.4196 4.33274 21.8083 7.05646 22.2359 8.55982C22.8941 10.8737 24.3704 12.8286 25.826 13.3136C26.1287 13.4146 26.4622 13.3105 26.6538 13.0549C26.7495 12.9273 28.8104 10.1129 28.5189 5.19682C38.4726 10.5629 43.5163 18.3747 43.5163 28.434C43.5163 38.3924 35.2306 49.0547 22.8956 49.0547Z" fill="#040406"/>
<path d="M36.3461 18.1978H32.4394C32.0299 18.1978 31.698 18.5301 31.698 18.9396C31.698 19.3491 32.0299 19.6815 32.4394 19.6815H36.3461C37.246 19.6815 37.9779 20.4133 37.9779 21.3132V36.3461C37.9779 37.2461 37.246 37.9779 36.3461 37.9779H9.44512C8.54518 37.9779 7.81335 37.2461 7.81335 36.3461V21.3132C7.81335 20.4133 8.54518 19.6815 9.44512 19.6815H28.879C29.2889 19.6815 29.6209 19.3491 29.6209 18.9396C29.6209 18.5301 29.2889 18.1978 28.879 18.1978H9.44512C7.72737 18.1978 6.32965 19.5955 6.32965 21.3132V36.3461C6.32965 38.0639 7.72737 39.4616 9.44512 39.4616H36.3461C38.0639 39.4616 39.4616 38.0639 39.4616 36.3461V21.3132C39.4616 19.5955 38.0639 18.1978 36.3461 18.1978Z" fill="#040406"/>
<path d="M17.7667 29.7207L19.4243 32.0886C19.4806 32.1672 19.5029 32.2463 19.5029 32.3253C19.5029 32.6635 19.0294 33.0467 18.6801 33.0467C18.5332 33.0467 18.4094 32.9792 18.3192 32.8551L16.7969 30.6114L16.0979 31.2542V32.4942C16.0979 32.7198 15.7597 32.9565 15.3537 32.9565C14.9369 32.9565 14.6435 32.7198 14.6435 32.4942V24.9292C14.6435 24.6585 14.9369 24.478 15.3537 24.478C15.7597 24.478 16.0979 24.6585 16.0979 24.9292V29.6533L18.2178 27.6575C18.2965 27.59 18.3982 27.5449 18.5108 27.5449C18.8266 27.5449 19.2211 27.917 19.2211 28.244C19.2211 28.3454 19.176 28.4356 19.0973 28.5146L17.7667 29.7207Z" fill="#040406"/>
<path d="M19.9089 30.7469V29.845C19.9089 28.5483 20.6419 27.5334 22.3442 27.5334C23.4042 27.5334 24.1484 27.9734 24.1484 28.4129C24.1484 28.6836 23.9228 29.1232 23.5731 29.1232C23.3252 29.1232 23.1223 28.8078 22.4568 28.8078C21.6903 28.8078 21.3633 29.191 21.3633 29.845V30.7469C21.3633 31.4008 21.6903 31.7841 22.4684 31.7841C23.1447 31.7841 23.314 31.4459 23.5958 31.4459C23.9903 31.4459 24.2158 31.8519 24.2158 32.1338C24.2158 32.5845 23.4154 33.058 22.3554 33.058C20.6531 33.058 19.9089 32.0659 19.9089 30.7469V30.7469Z" fill="#040406"/>
<path d="M29.2102 29.7323V32.4945C29.2102 32.7536 28.906 32.9568 28.5 32.9568C28.1279 32.9568 27.846 32.7536 27.846 32.4945V32.1676C27.44 32.6299 26.9102 33.0582 26.1321 33.0582C25.3317 33.0582 24.6666 32.5848 24.6666 31.5587C24.6666 30.262 25.7377 29.9011 27.2935 29.9011H27.7558V29.7546C27.7558 29.2699 27.5079 28.7174 26.7637 28.7174C25.8954 28.7174 25.7489 29.0667 25.4782 29.0667C25.1516 29.0667 24.9824 28.6723 24.9824 28.3453C24.9824 27.883 25.9856 27.5337 26.7861 27.5337C28.5451 27.5337 29.2102 28.5933 29.2102 29.7323ZM27.7558 30.6565H27.5869C26.8316 30.6565 26.121 30.7355 26.121 31.3667C26.121 31.7839 26.3805 31.9755 26.7186 31.9755C27.1809 31.9755 27.7558 31.4458 27.7558 30.8932V30.6565Z" fill="#040406"/>
<path d="M31.8487 24.9292V32.4942C31.8487 32.7197 31.5101 32.9565 31.1157 32.9565C30.6873 32.9565 30.3943 32.7197 30.3943 32.4942V24.9292C30.3943 24.6585 30.6873 24.478 31.1157 24.478C31.5101 24.478 31.8487 24.6585 31.8487 24.9292Z" fill="#040406"/>
</svg>
