<svg width="34" height="34" viewBox="0 0 34 34" fill="none" xmlns="http://www.w3.org/2000/svg">
<path d="M16.9999 0C7.61183 0 0 7.61185 0 17C0 17.3497 0.0150031 17.6952 0.0352751 18.0396L9.30307 18.0003L12.4833 5.52418C12.6353 4.92915 13.1826 4.52862 13.8083 4.5805C14.42 4.63132 14.9065 5.11696 14.959 5.73021L16.2383 21.026L18.3903 10.8642C18.5066 10.3137 18.9734 9.90804 19.5358 9.86866C20.092 9.83133 20.6149 10.168 20.8059 10.6961L23.4476 18.0076L33.9574 18.1352C33.9833 17.7607 34 17.3819 34 17.0001C33.9999 7.61185 26.3892 0 16.9999 0Z" fill="#292A33"/>
<path d="M21.3775 19.6829L19.9384 15.7057L16.931 29.9197C16.8064 30.504 16.2892 30.918 15.6993 30.918C15.6729 30.918 15.6464 30.9159 15.6199 30.9159C14.9958 30.8766 14.4957 30.3867 14.4438 29.7643L13.0752 13.4055L11.5048 19.5668C11.3622 20.123 10.8631 20.5132 10.2882 20.5152L0.377136 20.5566C2.0114 28.2378 8.83254 33.9996 16.9999 33.9996C25.1358 33.9996 31.9331 28.2845 33.6036 20.6499L22.547 20.515C22.0219 20.5088 21.556 20.1778 21.3775 19.6829Z" fill="#292A33"/>
</svg>
