<svg width="45" height="50" viewBox="0 0 61 68" fill="none" xmlns="http://www.w3.org/2000/svg">
<path d="M37.6399 4.36362C36.9333 4.01031 36.0939 4.61627 36.2059 5.39758C36.9525 10.625 35.4734 14.2026 34.6983 15.6496C33.6695 14.8973 32.4794 13.2237 31.8387 10.971C31.2763 8.99493 30.771 5.15427 33.7022 1.63681C34.2335 0.999207 33.7639 0 32.9354 0C26.8535 0 21.9831 3.70163 18.85 10.7039C17.2931 14.185 16.5367 17.6283 16.2031 19.5561C14.7323 18.3556 13.9837 16.5678 13.9728 14.2229C13.9619 11.8976 14.7007 9.88364 14.7074 9.86496C14.8563 9.46808 14.7313 9.00739 14.4024 8.73969C14.0511 8.45486 13.5365 8.44449 13.1744 8.71634C13.0379 8.81854 9.80634 11.2704 6.55502 16.1471C3.56467 20.6326 0 28.1096 0 38.2583C0 45.7939 3.21085 53.3268 8.8092 58.9247C14.6613 64.7772 22.4733 68 30.8063 68C39.1387 68 46.8257 64.6242 52.4506 58.4946C57.5965 52.8874 60.548 45.5111 60.548 38.2583C60.548 23.3677 52.8407 11.964 37.6399 4.36362ZM30.8063 66.0037C15.1894 66.0037 1.99634 53.2983 1.99634 38.2583C1.99634 28.6486 5.35297 21.5706 8.16901 17.3248C9.56354 15.2221 10.9679 13.5853 12.087 12.4237C12.0195 12.97 11.9765 13.5593 11.9765 14.172C11.9765 17.884 13.5479 20.6316 16.5206 22.118C17.1339 22.4246 17.8877 22.0095 17.9593 21.3294C17.9644 21.2806 18.4998 16.3748 20.6721 11.5189C23.1296 6.02585 26.5687 2.8866 30.9142 2.16028C28.8203 5.82974 29.3433 9.49454 29.9186 11.5173C30.8042 14.6306 32.7907 17.261 34.7491 17.9136C35.1564 18.0495 35.6052 17.9095 35.863 17.5655C35.9917 17.3938 38.7646 13.6071 38.3724 6.99237C51.7652 14.2125 58.5516 24.7234 58.5516 38.2583C58.5516 51.6573 47.4032 66.0037 30.8063 66.0037Z" fill="#97949B" fill-opacity="0.35"/>
<path d="M48.9041 24.4851H43.6476C43.0966 24.4851 42.6499 24.9323 42.6499 25.4833C42.6499 26.0342 43.0966 26.4814 43.6476 26.4814H48.9041C50.1149 26.4814 51.0996 27.4661 51.0996 28.677V48.9039C51.0996 50.1148 50.1149 51.0995 48.9041 51.0995H12.7085C11.4976 51.0995 10.5129 50.1148 10.5129 48.9039V28.677C10.5129 27.4661 11.4976 26.4814 12.7085 26.4814H38.857C39.4085 26.4814 39.8552 26.0342 39.8552 25.4833C39.8552 24.9323 39.4085 24.4851 38.857 24.4851H12.7085C10.3972 24.4851 8.5166 26.3658 8.5166 28.677V48.9039C8.5166 51.2152 10.3972 53.0958 12.7085 53.0958H48.9041C51.2153 53.0958 53.0959 51.2152 53.0959 48.9039V28.677C53.0959 26.3658 51.2153 24.4851 48.9041 24.4851Z" fill="#97949B" fill-opacity="0.35"/>
<path d="M23.9052 39.9894L26.1355 43.1754C26.2113 43.2812 26.2414 43.3875 26.2414 43.4939C26.2414 43.9489 25.6043 44.4646 25.1342 44.4646C24.9366 44.4646 24.77 44.3738 24.6487 44.2067L22.6004 41.1878L21.6599 42.0527V43.7211C21.6599 44.0246 21.2049 44.3432 20.6586 44.3432C20.0977 44.3432 19.7029 44.0246 19.7029 43.7211V33.5423C19.7029 33.1781 20.0977 32.9353 20.6586 32.9353C21.2049 32.9353 21.6599 33.1781 21.6599 33.5423V39.8986L24.5122 37.2133C24.618 37.1225 24.755 37.0618 24.9065 37.0618C25.3314 37.0618 25.8621 37.5625 25.8621 38.0024C25.8621 38.1389 25.8014 38.2603 25.6956 38.3666L23.9052 39.9894Z" fill="#97949B" fill-opacity="0.35"/>
<path d="M26.7877 41.3701V40.1566C26.7877 38.4119 27.7739 37.0464 30.0644 37.0464C31.4906 37.0464 32.4919 37.6383 32.4919 38.2298C32.4919 38.594 32.1884 39.1854 31.7178 39.1854C31.3842 39.1854 31.1113 38.761 30.2159 38.761C29.1845 38.761 28.7446 39.2767 28.7446 40.1566V41.3701C28.7446 42.2499 29.1845 42.7656 30.2314 42.7656C31.1414 42.7656 31.3692 42.3106 31.7484 42.3106C32.2791 42.3106 32.5826 42.8569 32.5826 43.2362C32.5826 43.8427 31.5056 44.4797 30.0794 44.4797C27.7889 44.4797 26.7877 43.1449 26.7877 41.3701V41.3701Z" fill="#97949B" fill-opacity="0.35"/>
<path d="M39.3026 40.0051V43.7217C39.3026 44.0704 38.8933 44.3438 38.347 44.3438C37.8463 44.3438 37.4671 44.0704 37.4671 43.7217V43.2818C36.9208 43.9038 36.208 44.4802 35.161 44.4802C34.084 44.4802 33.1891 43.8431 33.1891 42.4626C33.1891 40.7179 34.6303 40.2323 36.7237 40.2323H37.3457V40.0352C37.3457 39.383 37.0121 38.6396 36.0108 38.6396C34.8425 38.6396 34.6454 39.1096 34.2812 39.1096C33.8417 39.1096 33.614 38.5789 33.614 38.1389C33.614 37.5169 34.9639 37.0469 36.0409 37.0469C38.4077 37.0469 39.3026 38.4725 39.3026 40.0051ZM37.3457 41.2486H37.1185C36.1021 41.2486 35.146 41.355 35.146 42.2043C35.146 42.7656 35.4951 43.0234 35.9501 43.0234C36.5722 43.0234 37.3457 42.3106 37.3457 41.5672V41.2486Z" fill="#97949B" fill-opacity="0.35"/>
<path d="M42.8528 33.5423V43.7211C42.8528 44.0246 42.3973 44.3432 41.8665 44.3432C41.2902 44.3432 40.8959 44.0246 40.8959 43.7211V33.5423C40.8959 33.1781 41.2902 32.9353 41.8665 32.9353C42.3973 32.9353 42.8528 33.1781 42.8528 33.5423Z" fill="#97949B" fill-opacity="0.35"/>
</svg>
